<?xml version="1.0" encoding="utf-8"?>
<!-- Generator: Adobe Illustrator 16.0.4, SVG Export Plug-In . SVG Version: 6.00 Build 0)  -->
<!DOCTYPE svg PUBLIC "-//W3C//DTD SVG 1.1//EN" "http://www.w3.org/Graphics/SVG/1.1/DTD/svg11.dtd">
<svg version="1.1" id="Layer_1" xmlns="http://www.w3.org/2000/svg" xmlns:xlink="http://www.w3.org/1999/xlink" x="0px" y="0px"
	 width="283.465px" height="283.464px" viewBox="0 0 283.465 283.464" enable-background="new 0 0 283.465 283.464"
	 xml:space="preserve">
<circle fill="#FFFFFF" cx="141.732" cy="141.733" r="141.732"/>
<g>
	<g>
		<path fill="#45AC34" d="M157.049,160.28h-18.94c-1.289,0-2.334-1.045-2.334-2.334c0-15.661,6.432-23.054,12.106-29.576
			c2.9-3.334,5.641-6.483,7.471-10.556c1.628-3.595,1.563-7.489-0.165-10.17c-1.526-2.365-4.256-3.615-7.894-3.615
			c-5.124,0-10.562,2.808-11.164,9.082c-0.115,1.197-1.122,2.111-2.324,2.111h-17.651c-1.289,0-2.334-1.045-2.334-2.334
			c0-19.682,12.859-32.233,33.558-32.755c0.375-0.01,0.748-0.015,1.119-0.015c16.635,0,33.419,9.867,33.419,31.908
			c0,9.625-5.751,16.429-11.312,23.008c-5.771,6.826-11.22,13.274-11.22,22.913C159.384,159.235,158.338,160.28,157.049,160.28z
			 M140.495,155.612h14.313c0.82-10.095,6.857-17.238,12.229-23.592c5.25-6.212,10.21-12.079,10.21-19.995
			c0-20.105-15.488-27.24-28.751-27.24c-0.332,0-0.666,0.004-1.002,0.012c-17.321,0.438-27.987,10.01-28.937,25.755h13.269
			c1.805-7.673,9.03-11.192,15.467-11.192c5.227,0,9.424,2.043,11.816,5.753c2.58,4,2.77,9.601,0.498,14.62
			c-2.11,4.697-5.208,8.257-8.205,11.701C146.092,137.539,141.059,143.323,140.495,155.612z"/>
		<path fill="#45AC34" d="M147.867,188.98c-8.254,0-14.245-5.51-14.245-13.1c0-7.753,5.991-13.381,14.245-13.381
			c8.218,0,13.957,5.502,13.957,13.381C161.824,183.47,155.955,188.98,147.867,188.98z M147.867,167.167
			c-5.729,0-9.576,3.501-9.576,8.713c0,4.964,3.938,8.432,9.576,8.432c5.557,0,9.289-3.388,9.289-8.432
			C157.156,170.587,153.51,167.167,147.867,167.167z"/>
	</g>
	<path fill="#45AC34" d="M68.244,220.109c-0.608,0-1.205-0.237-1.65-0.684c-0.652-0.65-0.859-1.623-0.529-2.485l13.977-36.513
		c-9.249-13.607-14.133-29.481-14.133-45.984c0-45.19,36.768-81.956,81.958-81.956c45.191,0,81.957,36.766,81.957,81.956
		c0,45.191-36.766,81.96-81.957,81.96c-14.385,0-28.507-3.78-40.915-10.946l-37.875,14.5
		C68.806,220.059,68.522,220.109,68.244,220.109z M147.867,57.155c-42.618,0-77.289,34.671-77.289,77.288
		c0,15.955,4.838,31.285,13.996,44.329c0.442,0.637,0.545,1.45,0.267,2.175l-12.547,32.779l34.036-13.029
		c0.667-0.256,1.416-0.191,2.03,0.173c11.922,7.107,25.582,10.864,39.507,10.864c42.617,0,77.288-34.671,77.288-77.291
		C225.155,91.827,190.484,57.155,147.867,57.155z"/>
</g>
</svg>
